<svg id="Drone--Streamline-Carbon" xmlns="http://www.w3.org/2000/svg" viewBox="0 0 16 16" height="16" width="16">
  <desc>
    Drone Streamline Icon: https://streamlinehq.com
  </desc>
  <defs></defs>
  <path d="M3.5 6a2.5 2.5 0 1 1 2.5 -2.5h-1a1.5 1.5 0 1 0 -1.5 1.5Z" fill="#000000" stroke-width="0.5"></path>
  <path d="M12.5 6v-1a1.5 1.5 0 1 0 -1.5 -1.5h-1a2.5 2.5 0 1 1 2.5 2.5Z" fill="#000000" stroke-width="0.5"></path>
  <path d="M3.5 15a2.5 2.5 0 0 1 0 -5v1a1.5 1.5 0 1 0 1.5 1.5h1a2.50275 2.50275 0 0 1 -2.5 2.5Z" fill="#000000" stroke-width="0.5"></path>
  <path d="M12.5 15a2.50275 2.50275 0 0 1 -2.5 -2.5h1a1.5 1.5 0 1 0 1.5 -1.5v-1a2.5 2.5 0 0 1 0 5Z" fill="#000000" stroke-width="0.5"></path>
  <path d="M10 9.29295v-2.5859l2.8535 -2.85355a0.5 0.5 0 1 0 -0.707 -0.707l-2.24975 2.25a1.98645 1.98645 0 0 0 -3.7935 0l-2.24975 -2.25a0.4997 0.4997 0 0 0 -0.707 0 0.4997 0.4997 0 0 0 0 0.707L6 6.70705v2.5859L3.1465 12.1465a0.4997 0.4997 0 0 0 0 0.707 0.4997 0.4997 0 0 0 0.707 0l2.25 -2.25a1.98645 1.98645 0 0 0 3.7935 0l2.24975 2.25a0.5 0.5 0 0 0 0.707 -0.707ZM9 10a1 1 0 0 1 -2 0v-4a1 1 0 0 1 2 0Z" fill="#000000" stroke-width="0.5"></path>
  <path id="_Transparent_Rectangle_" d="M0 0h16v16H0Z" fill="none" stroke-width="0.5"></path>
</svg>